{"title":"Bellflower (2011) DVDRip NL subs DutchReleaseTeam [Actie&amp;Dra","uid":6797561,"size":738101829,"categoryP":"video","categoryS":"movies","magnet":"?xt=urn:btih:09f4ec0169d755c1feb4f5eda9e2065f952d1c1e&amp;dn=Bellflower+%282011%29+DVDRip+NL+subs+DutchReleaseTeam+%5BActie%26amp%3BDra&amp;tr=udp%3A%2F%2Ftracker.openbittorrent.com%3A80&amp;tr=udp%3A%2F%2Fopen.demonii.com%3A1337&amp;tr=udp%3A%2F%2Ftracker.coppersurfer.tk%3A6969&amp;tr=udp%3A%2F%2Fexodus.desync.com%3A6969","seeders":0,"leechers":1,"uploader":"Koedje","files":-1,"time":1320515655,"description":" &lt;a href=&quot;http://img513.imageshack.us/img513/1175/bellflower.jpg&quot; rel=&quot;nofollow&quot; target=&quot;_NEW&quot;&gt;http://img513.imageshack.us/img513/1175/bellflower.jpg&lt;/a&gt;\n\n\nVerenigde Staten\nActie / Drama\n106 minuten\n\ngeregisseerd door Evan Glodell\nmet Evan Glodell, Jessie Wiseman en Tyler Dawson\n\nBellflower volgt twee vrienden die hun tijd verdoen met het bouwen van vlammenwerpers en andere wapens in de hoop dat er een wereldwijde apocalyps zal plaatsvinden die de weg vrij maakt voor hun denkbeeldige bende, Moeder Medusa. Tijdens het wachten op de totale vernietiging ontmoet een van hen een charismatische jonge vrouw waar hij verliefd op wordt. Al snel integreert hij in een nieuwe groep vrienden waarna het stel begint aan een trip van verraad, liefde, haat en extreem geweld, nog verwoestender dan die in hun apocalyptische fantasieen.\n\n\n\nVertaald door Simply ReleaseS Toppers\nTackleR\n\n\n\n\nScreenshots:\n &lt;a href=&quot;\nhttp://img607.imageshack.us/img607/469/screenshot1co.jpg&quot; rel=&quot;nofollow&quot; target=&quot;_NEW&quot;&gt;\nhttp://img607.imageshack.us/img607/469/screenshot1co.jpg&lt;/a&gt;\n &lt;a href=&quot;\nhttp://img573.imageshack.us/img573/7108/screenshot2ma.jpg&quot; rel=&quot;nofollow&quot; target=&quot;_NEW&quot;&gt;\nhttp://img573.imageshack.us/img573/7108/screenshot2ma.jpg&lt;/a&gt;\n &lt;a href=&quot;\nhttp://img508.imageshack.us/img508/9290/screenshot3gy.jpg&quot; rel=&quot;nofollow&quot; target=&quot;_NEW&quot;&gt;\nhttp://img508.imageshack.us/img508/9290/screenshot3gy.jpg&lt;/a&gt;\n &lt;a href=&quot;\nhttp://img511.imageshack.us/img511/1455/screenshot4w.jpg&quot; rel=&quot;nofollow&quot; target=&quot;_NEW&quot;&gt;\nhttp://img511.imageshack.us/img511/1455/screenshot4w.jpg&lt;/a&gt;\n\n\n\nINFO;\n\n\nFormat                                   : AVI\nFormat/Info                              : Audio Video Interleave\nFile size                                : 700 MiB\nDuration                                 : 1h 45mn\nOverall bit rate mode                    : Variable\nOverall bit rate                         : 926 Kbps\nWriting application                      : VirtualDubMod 1.5.10.2 (build 2542/release)\nWriting library                          : VirtualDubMod build 2542/release\n\nVideo\nID                                       : 0\nFormat                                   : MPEG-4 Visual\nFormat profile                           : Advanced Simple@L5\nFormat settings, BVOP                    : 1\nFormat settings, QPel                    : No\nFormat settings, GMC                     : No warppoints\nFormat settings, Matrix                  : Default (H.263)\nMuxing mode                              : Packed bitstream\nCodec ID                                 : XVID\nCodec ID/Hint                            : XviD\nDuration                                 : 1h 45mn\nBit rate                                 : 783 Kbps\nWidth                                    : 640 pixels\nHeight                                   : 272 pixels\nDisplay aspect ratio                     : 2.35:1\nFrame rate                               : 23.976 fps\nColor space                              : YUV\nChroma subsampling                       : 4:2:0\nBit depth                                : 8 bits\nScan type                                : Progressive\nCompression mode                         : Lossy\nBits/(Pixel*Frame)                       : 0.188\nStream size                              : 592 MiB (85%)\nWriting library                          : XviD 64\n\nAudio\nID                                       : 1\nFormat                                   : MPEG Audio\nFormat version                           : Version 1\nFormat profile                           : Layer 3\nMode                                     : Joint stereo\nMode extension                           : MS Stereo\nCodec ID                                 : 55\nCodec ID/Hint                            : MP3\nDuration                                 : 1h 45mn\nBit rate mode                            : Variable\nBit rate                                 : 128 Kbps\nChannel(s)                               : 2 channels\nSampling rate                            : 48.0 KHz\nCompression mode                         : Lossy\nStream size                              : 98.5 MiB (14%)\nAlignment                                : Aligned on interleaves\nInterleave, duration                     : 24 ms (0.58 video frame)\nInterleave, preload duration             : 477 ms\n\n\n\n &lt;a href=&quot;\nhttp://www.moviemeter.nl/film/72895&quot; rel=&quot;nofollow&quot; target=&quot;_NEW&quot;&gt;\nhttp://www.moviemeter.nl/film/72895&lt;/a&gt; &lt;a href=&quot;\nhttp://www.imdb.com/title/tt1242599/&quot; rel=&quot;nofollow&quot; target=&quot;_NEW&quot;&gt;\nhttp://www.imdb.com/title/tt1242599/&lt;/a&gt;\n\n\n\n\nDeze film wordt u aangeboden door het DutchReleaseTeam.\nVoor de reviews van de nieuwste films, muziek, series, games etc\nga dan eens naar http://www.hetmultimediacafe.be\n\nDutchReleaseteam = Hardcoded Dutch Subs","torrent":{"xt":"urn:btih:09f4ec0169d755c1feb4f5eda9e2065f952d1c1e","amp;dn":"Bellflower+%282011%29+DVDRip+NL+subs+DutchReleaseTeam+%5BActie%26amp%3BDra","amp;tr":["udp%3A%2F%2Ftracker.openbittorrent.com%3A80","udp%3A%2F%2Fopen.demonii.com%3A1337","udp%3A%2F%2Ftracker.coppersurfer.tk%3A6969","udp%3A%2F%2Fexodus.desync.com%3A6969"],"infoHash":"09f4ec0169d755c1feb4f5eda9e2065f952d1c1e","infoHashBuffer":{"type":"Buffer","data":[9,244,236,1,105,215,85,193,254,180,245,237,169,226,6,95,149,45,28,30]},"announce":[],"urlList":[]}}